<svg width="121" height="69" viewBox="0 0 121 69" fill="none" xmlns="http://www.w3.org/2000/svg">
<path d="M35.2869 60.7852C32.561 59.115 30.1788 57.6637 27.4529 55.9935C28.1859 54.3348 28.667 52.8258 29.4687 51.5012C36.0886 40.5124 42.8459 29.6042 49.42 18.5924C56.7385 6.34803 67.0347 0.070361 81.603 0.669331C94.167 1.18767 106.754 0.807555 119.341 0.85363C119.707 0.85363 120.074 1.09552 120.44 1.23375C117.016 13.8121 111.129 18.4772 98.5994 18.5002C91.0862 18.5233 83.5844 18.5348 76.0712 18.5233C66.5766 18.5002 59.2008 22.4511 54.1157 30.5027C47.828 40.4548 41.6776 50.476 35.2639 60.7967L35.2869 60.7852Z" fill="white"/>
<path d="M48.3319 68.5603C45.0792 66.6597 42.6626 65.2544 39.6047 63.4575C46.6025 52.342 52.9474 41.4108 60.243 31.1707C62.5795 27.8994 67.3554 24.7894 71.2265 24.5014C82.8857 23.6375 94.648 24.1904 106.422 24.1904C103.845 34.9834 98.2214 39.5333 87.6159 39.6024C64.1371 39.7291 67.4471 37.1489 54.3562 58.8501C52.4779 61.9601 50.5309 65.0241 48.3434 68.5603H48.3319Z" fill="white"/>
<path d="M33.5002 34.9373C29.6978 41.2265 26.2619 46.8937 22.7687 52.6761C15.244 50.2456 9.25407 40.5469 0 50.7755C5.612 33.1289 11.9341 32.6566 33.5002 34.9489V34.9373Z" fill="white"/>
</svg>
