<svg width="40" height="40" viewBox="0 0 40 40" fill="none" xmlns="http://www.w3.org/2000/svg">
<path fill-rule="evenodd" clip-rule="evenodd" d="M39.8798 12.0174C39.7824 9.95648 39.4443 8.54903 38.9499 7.31765C38.4479 6.02571 37.6605 4.85548 36.6431 3.88823C35.6442 2.90324 34.4351 2.14072 33.1006 1.65443C31.8283 1.17612 30.3748 0.849074 28.2458 0.75542C26.113 0.660881 25.4315 0.638428 20 0.638428C14.5685 0.638428 13.887 0.660881 11.7542 0.75483C9.62524 0.849074 8.17169 1.17642 6.89941 1.65502C5.56488 2.14102 4.35608 2.90324 3.35693 3.88823C2.33948 4.85519 1.55182 6.02541 1.0495 7.31735C0.55542 8.54903 0.21759 9.95648 0.12085 12.0171C0.0231934 14.0822 0 14.7417 0 19.9998C0 25.2583 0.0231934 25.918 0.12085 27.9828C0.217895 30.0435 0.55603 31.4509 1.05041 32.6826C1.55243 33.9743 2.33978 35.1448 3.35724 36.1117C4.35608 37.0967 5.56519 37.8589 6.89972 38.3449C8.17169 38.8238 9.62555 39.1509 11.7545 39.2451C13.8876 39.3394 14.5688 39.3615 20.0003 39.3615C25.4318 39.3615 26.1133 39.3394 28.2462 39.2451C30.3751 39.1509 31.8286 38.8238 33.1009 38.3449C35.7874 37.3393 37.9111 35.2833 38.9499 32.6826C39.4446 31.4509 39.7824 30.0435 39.8798 27.9828C39.9768 25.9177 40 25.2583 40 20.0001C40 14.7417 39.9768 14.0822 39.8798 12.0174ZM36.2796 27.8242C36.1908 29.712 35.8649 30.7372 35.5911 31.4193C34.9182 33.108 33.5397 34.4425 31.7953 35.094C31.0907 35.359 30.0317 35.6745 28.0817 35.7605C25.9732 35.8538 25.3406 35.8733 20 35.8733C14.6591 35.8733 14.0268 35.8538 11.918 35.7605C9.96826 35.6745 8.9093 35.359 8.20435 35.094C7.33582 34.7835 6.54999 34.2886 5.90485 33.6454C5.24048 33.0209 4.72931 32.2604 4.40857 31.4193C4.13483 30.7372 3.8089 29.712 3.72009 27.8242C3.62396 25.7827 3.60352 25.1703 3.60352 20.0004C3.60352 14.8303 3.62396 14.2181 3.72009 12.1764C3.8092 10.2886 4.13483 9.26339 4.40857 8.58123C4.72931 7.74012 5.24078 6.97937 5.90485 6.35482C6.54999 5.71166 7.33582 5.2168 8.20465 4.90659C8.9093 4.64129 9.96826 4.32606 11.9183 4.23979C14.0271 4.14673 14.6597 4.12694 20 4.12694C25.34 4.12694 25.9726 4.14673 28.0817 4.24009C30.0317 4.32606 31.0904 4.64159 31.7953 4.90659C32.6639 5.2171 33.4497 5.71195 34.0948 6.35482C34.7592 6.97937 35.2704 7.74012 35.5908 8.58123C35.8649 9.26339 36.1908 10.2886 36.2796 12.1764C36.3757 14.2179 36.3962 14.8303 36.3962 20.0001C36.3962 25.1703 36.376 25.7824 36.2796 27.8242ZM19.9997 10.0575C14.3277 10.0575 9.72961 14.5092 9.72961 20.0001C9.72961 25.4911 14.3277 29.9424 19.9997 29.9424C25.672 29.9424 30.2701 25.4911 30.2701 20.0001C30.2701 14.5092 25.672 10.0575 19.9997 10.0575ZM19.9997 26.4539C16.3181 26.4536 13.3331 23.5643 13.3334 19.9998C13.3334 16.4357 16.3181 13.546 20 13.546C23.6819 13.5463 26.6666 16.4357 26.6666 19.9998C26.6666 23.5643 23.6816 26.4539 19.9997 26.4539ZM30.676 11.9882C32.0013 11.9882 33.0759 10.948 33.0759 9.66489C33.0759 8.38151 32.0013 7.34128 30.676 7.34128C29.3503 7.34128 28.2757 8.38151 28.2757 9.66489C28.2757 10.948 29.3503 11.9882 30.676 11.9882Z" fill="#888888"/>
</svg>
