<svg width="190" height="31" viewBox="0 0 190 31" fill="none" xmlns="http://www.w3.org/2000/svg">
<path d="M60.1169 27.9669C59.796 27.9669 59.6355 27.808 59.6355 27.4903V1.45799C59.6355 1.14029 59.796 0.981445 60.1169 0.981445H76.7219C77.0428 0.981445 77.2033 1.14029 77.2033 1.45799V5.17222C77.2033 5.48991 77.0428 5.64876 76.7219 5.64876H64.6481V12.6334H75.051C75.3719 12.6334 75.5324 12.7922 75.5324 13.1099V16.8242C75.5324 17.1419 75.3719 17.3007 75.051 17.3007H64.6481V27.4856C64.6481 27.8033 64.4877 27.9622 64.1667 27.9622H60.1169V27.9669Z" fill="black"/>
<path d="M81.1964 26.4766C79.9692 25.2386 79.3604 23.5146 79.3604 21.3094V9.39585C79.3604 9.07816 79.5208 8.91931 79.8418 8.91931H83.7027C84.0237 8.91931 84.1842 9.07816 84.1842 9.39585V19.3612C84.1842 20.9544 84.4815 22.127 85.0763 22.8745C85.671 23.6221 86.6008 23.9958 87.8611 23.9958C89.1213 23.9958 90.2022 23.5286 91.0942 22.5989C91.9863 21.6692 92.43 20.3423 92.43 18.6277V9.40053C92.43 9.08283 92.5905 8.92398 92.9114 8.92398H96.7771C97.0981 8.92398 97.2586 9.08283 97.2586 9.40053V27.4905C97.2586 27.8082 97.0981 27.967 96.7771 27.967H93.2843C92.9398 27.967 92.7651 27.8082 92.7651 27.4905L92.6566 25.3227C91.9627 26.3038 91.0612 27.0513 89.9473 27.5652C88.8334 28.0791 87.6439 28.3361 86.3837 28.3361C84.1559 28.3361 82.4283 27.7147 81.2011 26.4813L81.1964 26.4766Z" fill="black"/>
<path d="M102.054 27.9668C101.733 27.9668 101.573 27.8079 101.573 27.4902V0.869243C101.573 0.551548 101.733 0.3927 102.054 0.3927H105.92C106.241 0.3927 106.401 0.551548 106.401 0.869243V27.4856C106.401 27.8033 106.241 27.9621 105.92 27.9621H102.054V27.9668Z" fill="black"/>
<path d="M111.192 27.9668C110.871 27.9668 110.71 27.8079 110.71 27.4902V0.869243C110.71 0.551548 110.871 0.3927 111.192 0.3927H115.058C115.379 0.3927 115.539 0.551548 115.539 0.869243V27.4856C115.539 27.8033 115.379 27.9621 115.058 27.9621H111.192V27.9668Z" fill="black"/>
<path d="M122.964 27.0838C121.599 26.2522 120.556 25.0888 119.825 23.5891C119.093 22.0941 118.73 20.3795 118.73 18.4406C118.73 16.5017 119.093 14.7871 119.825 13.2921C120.556 11.797 121.604 10.6337 122.964 9.79741C124.328 8.9658 125.909 8.54532 127.717 8.54532C128.953 8.54532 130.095 8.77892 131.134 9.24145C132.172 9.70865 133.05 10.3674 133.772 11.227V0.869243C133.772 0.551548 133.933 0.3927 134.254 0.3927H138.115C138.436 0.3927 138.596 0.551548 138.596 0.869243V27.4856C138.596 27.8033 138.436 27.9621 138.115 27.9621H134.622C134.273 27.9621 134.103 27.8033 134.103 27.4856L133.994 25.3551C133.3 26.3129 132.418 27.0464 131.337 27.5603C130.261 28.0742 129.052 28.3312 127.717 28.3312C125.909 28.3312 124.323 27.9154 122.964 27.0791V27.0838ZM132.658 22.4538C133.626 21.426 134.107 20.0898 134.107 18.4453C134.107 16.8007 133.626 15.4692 132.658 14.4367C131.696 13.4089 130.445 12.8903 128.906 12.8903C127.367 12.8903 126.121 13.4042 125.154 14.4367C124.191 15.4645 123.705 16.8007 123.705 18.4453C123.705 20.0898 124.186 21.4213 125.154 22.4538C126.121 23.4817 127.367 24.0003 128.906 24.0003C130.445 24.0003 131.691 23.4863 132.658 22.4538Z" fill="black"/>
<path d="M143.302 4.80324C142.769 4.31268 142.504 3.67729 142.504 2.89239C142.504 2.1075 142.769 1.47211 143.302 0.981549C143.835 0.49099 144.51 0.248047 145.327 0.248047C146.143 0.248047 146.818 0.49099 147.352 0.981549C147.885 1.47211 148.149 2.1075 148.149 2.89239C148.149 3.67729 147.88 4.31268 147.352 4.80324C146.818 5.2938 146.143 5.53674 145.327 5.53674C144.51 5.53674 143.835 5.2938 143.302 4.80324ZM143.396 27.967C143.076 27.967 142.915 27.8081 142.915 27.4904V9.40047C142.915 9.08278 143.076 8.92393 143.396 8.92393H147.262C147.583 8.92393 147.744 9.08278 147.744 9.40047V27.4904C147.744 27.8081 147.583 27.967 147.262 27.967H143.396Z" fill="black"/>
<path d="M159.104 27.967C158.859 27.967 158.67 27.8455 158.547 27.5979L150.339 9.47061C150.288 9.37249 150.264 9.29774 150.264 9.25102C150.264 9.03144 150.41 8.91931 150.708 8.91931H155.314C155.588 8.91931 155.772 9.04078 155.871 9.2884L160.478 20.8703L165.085 9.2884C165.184 9.04546 165.368 8.91931 165.642 8.91931H169.951C170.149 8.91931 170.277 8.9707 170.343 9.06882C170.404 9.16693 170.399 9.30241 170.324 9.47061L162.116 27.5979C161.993 27.8455 161.804 27.967 161.559 27.967H159.109H159.104Z" fill="black"/>
<path d="M175.431 27.084C173.958 26.2523 172.83 25.0797 172.051 23.5753C171.273 22.0662 170.881 20.3563 170.881 18.4454C170.881 16.5346 171.273 14.8247 172.051 13.3156C172.83 11.8065 173.958 10.6385 175.431 9.80226C176.904 8.97065 178.631 8.55017 180.613 8.55017C182.596 8.55017 184.21 8.99868 185.612 9.89103C187.009 10.7881 188.057 12.0542 188.751 13.694C189.445 15.3386 189.766 17.2494 189.718 19.4312C189.695 19.7489 189.52 19.9078 189.199 19.9078H176.011C176.233 21.23 176.748 22.2625 177.555 22.996C178.357 23.7295 179.391 24.0986 180.656 24.0986C182.586 24.0986 183.998 23.3744 184.89 21.9307C185.013 21.7112 185.225 21.6364 185.522 21.7112L188.826 22.8511C189.147 22.9726 189.237 23.1828 189.086 23.4772C188.269 25.0937 187.118 26.3084 185.631 27.1167C184.144 27.9249 182.473 28.3314 180.618 28.3314C178.636 28.3314 176.908 27.9156 175.436 27.0793L175.431 27.084ZM184.55 16.3477C184.328 15.2218 183.87 14.3434 183.176 13.7174C182.483 13.0913 181.619 12.7783 180.576 12.7783C179.438 12.7783 178.475 13.0913 177.697 13.7174C176.918 14.3434 176.38 15.2171 176.082 16.3477H184.55Z" fill="black"/>
<path d="M14.5422 27.3364C13.4188 26.659 12.4371 26.0703 11.3137 25.3928C11.6158 24.7201 11.814 24.108 12.1444 23.5708C14.8726 19.1137 17.6574 14.6893 20.3667 10.2229C23.3827 5.25657 27.626 2.71034 33.6298 2.95328C38.8077 3.16352 43.9949 3.00934 49.1822 3.02803C49.3332 3.02803 49.4843 3.12614 49.6353 3.18221C48.224 8.28402 45.798 10.1762 40.6343 10.1855C37.538 10.1949 34.4464 10.1995 31.3501 10.1949C27.4372 10.1855 24.3975 11.788 22.3019 15.0537C19.7106 19.0903 17.1759 23.155 14.5328 27.3411L14.5422 27.3364Z" fill="black"/>
<path d="M19.9184 30.49C18.5779 29.7192 17.582 29.1492 16.3218 28.4203C19.2057 23.9119 21.8206 19.4782 24.8272 15.3248C25.7901 13.9979 27.7583 12.7365 29.3537 12.6197C34.1586 12.2693 39.0061 12.4935 43.8582 12.4935C42.7962 16.8712 40.4787 18.7166 36.108 18.7447C26.432 18.796 27.7961 17.7495 22.4011 26.5515C21.627 27.813 20.8246 29.0557 19.9231 30.49H19.9184Z" fill="black"/>
<path d="M13.806 16.8526C12.2389 19.4035 10.8229 21.7021 9.38334 24.0475C6.28231 23.0617 3.81375 19.1279 0 23.2766C2.3128 16.1191 4.91823 15.9276 13.806 16.8573V16.8526Z" fill="black"/>
</svg>
