<svg width="40" height="34" viewBox="0 0 40 34" fill="none" xmlns="http://www.w3.org/2000/svg">
<path d="M40 4.59788C38.5277 5.25038 36.9471 5.69123 35.2879 5.88946C36.9811 4.87458 38.2841 3.26604 38.8953 1.34984C37.3105 2.29142 35.5533 2.97386 33.6845 3.34141C32.1885 1.74733 30.0565 0.75 27.6974 0.75C23.166 0.75 19.4926 4.42443 19.4926 8.95476C19.4926 9.59796 19.5648 10.2236 19.7063 10.8255C12.8859 10.4828 6.84098 7.21614 2.79379 2.25219C2.0876 3.46324 1.68288 4.87354 1.68288 6.37677C1.68288 9.22319 2.84438 11.7351 5.04659 13.2063C3.70131 13.163 2.07831 12.7944 1.04587 12.179V12.2823C1.04587 16.2582 4.15869 19.5733 7.91162 20.327C7.22195 20.5149 6.63965 20.6161 5.89216 20.6161C5.36355 20.6161 4.92063 20.5645 4.4199 20.4685C5.46576 23.7268 8.53212 26.1004 12.1209 26.1665C9.31368 28.3666 5.79305 29.6788 1.95029 29.6788C1.28643 29.6788 0.643213 29.6396 0 29.5642C3.63111 31.8923 7.94776 33.25 12.5814 33.25C27.6736 33.25 35.928 20.7483 35.928 9.90666C35.928 9.55047 35.9198 9.19635 35.9053 8.84532C37.5087 7.68899 38.9015 6.24255 40 4.59788Z" fill="#888888"/>
</svg>
